<svg xmlns="http://www.w3.org/2000/svg" width="152" height="44" viewBox="0 0 152 44">
    <g fill="none" fill-rule="evenodd">
        <rect width="151.805" height="44" fill="#000" rx="6"/>
        <path fill="#FFF" d="M58.734 33.791h2.492l-5.454-15.105h-2.523L47.795 33.79h2.408l1.392-4.01h5.758l1.381 4.01zM54.39 21.428h.178l2.188 6.386h-4.564l2.198-6.386zm13.442.775c-1.55 0-2.89.775-3.58 2.073h-.168v-1.884h-2.167v15.094h2.251v-5.422h.178c.597 1.204 1.884 1.916 3.507 1.916 2.878 0 4.71-2.272 4.71-5.894 0-3.622-1.832-5.883-4.731-5.883zm-.639 9.756c-1.884 0-3.067-1.486-3.067-3.862 0-2.387 1.183-3.874 3.078-3.874 1.905 0 3.046 1.455 3.046 3.863 0 2.418-1.141 3.873-3.057 3.873zm12.311-9.756c-1.549 0-2.889.775-3.58 2.073h-.167v-1.884H73.59v15.094h2.25v-5.422h.178c.597 1.204 1.885 1.916 3.507 1.916 2.879 0 4.71-2.272 4.71-5.894 0-3.622-1.831-5.883-4.73-5.883zm-.638 9.756c-1.884 0-3.067-1.486-3.067-3.862 0-2.387 1.183-3.874 3.077-3.874 1.905 0 3.046 1.455 3.046 3.863 0 2.418-1.14 3.873-3.056 3.873zM89 29.73c.168 2.701 2.418 4.429 5.768 4.429 3.58 0 5.82-1.811 5.82-4.7 0-2.272-1.277-3.528-4.375-4.25l-1.665-.409c-1.968-.46-2.763-1.078-2.763-2.156 0-1.361 1.235-2.25 3.088-2.25 1.758 0 2.973.868 3.192 2.26h2.282c-.136-2.544-2.376-4.334-5.443-4.334-3.297 0-5.496 1.79-5.496 4.48 0 2.22 1.246 3.539 3.978 4.177l1.947.472c2 .47 2.879 1.162 2.879 2.313 0 1.34-1.382 2.313-3.266 2.313-2.02 0-3.423-.91-3.622-2.344H89zm13.525-10.101v2.816h-1.873v1.895h1.873v6.437c0 2.199.995 3.078 3.497 3.078.44 0 .848-.052 1.204-.115v-1.874c-.314.031-.492.052-.838.052-1.12 0-1.612-.523-1.612-1.716v-5.862h2.554v-1.895h-2.554v-2.816h-2.25zm10.385 12.384c-1.957 0-3.056-1.435-3.056-3.926 0-2.47 1.099-3.915 3.056-3.915 1.947 0 3.057 1.445 3.057 3.915 0 2.481-1.11 3.926-3.057 3.926zm0 1.999c3.33 0 5.37-2.23 5.37-5.925 0-3.674-2.051-5.914-5.37-5.914-3.328 0-5.38 2.24-5.38 5.914 0 3.695 2.041 5.925 5.38 5.925zm6.397-.22h2.25v-6.73c0-1.602 1.204-2.68 2.9-2.68.377 0 1.068.073 1.246.136v-2.22c-.24-.063-.67-.094-.995-.094-1.486 0-2.742.817-3.067 1.937h-.167v-1.748h-2.167v11.4zm11.463-9.704c1.664 0 2.753 1.162 2.806 2.952h-5.758c.126-1.78 1.288-2.952 2.952-2.952zm2.795 6.627c-.419.89-1.35 1.381-2.711 1.381-1.8 0-2.963-1.266-3.036-3.266v-.125h8.05v-.785c0-3.58-1.916-5.747-5.087-5.747-3.214 0-5.255 2.313-5.255 5.956 0 3.643 1.999 5.883 5.265 5.883 2.607 0 4.428-1.256 4.94-3.297h-2.166zM49.905 6.895v7.193h2.597c2.143 0 3.384-1.32 3.384-3.619 0-2.263-1.25-3.574-3.384-3.574h-2.597zm1.116 1.017h1.356c1.49 0 2.373.947 2.373 2.572 0 1.65-.868 2.587-2.373 2.587h-1.356V7.912zm8.794 5.329c-.932 0-1.455-.683-1.455-1.87 0-1.176.523-1.864 1.455-1.864.927 0 1.456.688 1.456 1.864 0 1.182-.529 1.87-1.456 1.87zm0 .952c1.585 0 2.557-1.062 2.557-2.822 0-1.75-.977-2.816-2.557-2.816-1.585 0-2.562 1.067-2.562 2.816 0 1.76.972 2.822 2.562 2.822zM70.773 8.66H69.7l-.967 4.142h-.085L67.533 8.66h-1.027l-1.117 4.142h-.08l-.972-4.142h-1.086l1.495 5.428h1.102l1.116-3.998h.085l1.122 3.998h1.111l1.49-5.428zm1.362 5.428h1.071v-3.175c0-.848.529-1.376 1.391-1.376.798 0 1.187.434 1.187 1.306v3.245h1.071v-3.514c0-1.291-.683-2.019-1.894-2.019-.817 0-1.45.364-1.715.967h-.08V8.66h-1.031v5.428zm6.53 0h1.072V6.541h-1.071v7.547zm5.226-.847c-.932 0-1.456-.683-1.456-1.87 0-1.176.524-1.864 1.456-1.864.927 0 1.455.688 1.455 1.864 0 1.182-.528 1.87-1.455 1.87zm0 .952c1.585 0 2.557-1.062 2.557-2.822 0-1.75-.977-2.816-2.557-2.816-1.585 0-2.562 1.067-2.562 2.816 0 1.76.972 2.822 2.562 2.822zm5.873-.917c-.583 0-1.007-.284-1.007-.773 0-.479.339-.733 1.087-.783l1.326-.084v.453c0 .673-.599 1.187-1.406 1.187zm-.274.902c.712 0 1.306-.31 1.63-.853h.084v.763h1.032V10.38c0-1.146-.767-1.824-2.128-1.824-1.231 0-2.109.598-2.218 1.53h1.036c.12-.383.534-.603 1.132-.603.733 0 1.112.324 1.112.897v.47l-1.471.084c-1.291.08-2.019.643-2.019 1.62 0 .992.763 1.625 1.81 1.625zm6.51 0c.748 0 1.382-.354 1.706-.947h.084v.857h1.027V6.541h-1.072v2.981h-.08c-.293-.598-.922-.952-1.664-.952-1.371 0-2.253 1.087-2.253 2.801 0 1.72.872 2.807 2.253 2.807zm.305-4.646c.897 0 1.46.713 1.46 1.844 0 1.137-.558 1.84-1.46 1.84-.907 0-1.45-.693-1.45-1.845 0-1.141.548-1.839 1.45-1.839zm9.712 3.709c-.932 0-1.455-.683-1.455-1.87 0-1.176.523-1.864 1.455-1.864.927 0 1.456.688 1.456 1.864 0 1.182-.529 1.87-1.456 1.87zm0 .952c1.585 0 2.557-1.062 2.557-2.822 0-1.75-.977-2.816-2.557-2.816-1.585 0-2.562 1.067-2.562 2.816 0 1.76.972 2.822 2.562 2.822zm4.099-.105h1.071v-3.175c0-.848.529-1.376 1.391-1.376.798 0 1.187.434 1.187 1.306v3.245h1.071v-3.514c0-1.291-.683-2.019-1.894-2.019-.817 0-1.45.364-1.715.967h-.08V8.66h-1.031v5.428zm9.906-6.744v1.34h-.892v.903h.892v3.066c0 1.046.474 1.465 1.665 1.465.21 0 .404-.025.574-.055v-.892c-.15.015-.235.025-.4.025-.533 0-.767-.25-.767-.818V9.587h1.216v-.902h-1.216V7.344h-1.072zm3.815 6.744h1.071v-3.17c0-.823.544-1.376 1.421-1.376.808 0 1.211.439 1.211 1.306v3.24h1.072v-3.504c0-1.291-.698-2.024-1.919-2.024-.817 0-1.446.364-1.71.972h-.085v-2.99h-1.061v7.546zm8.769-4.62c.793 0 1.31.553 1.336 1.405H131.2c.06-.847.613-1.406 1.406-1.406zm1.33 3.155c-.199.423-.642.658-1.29.658-.858 0-1.41-.604-1.446-1.556v-.06h3.834v-.373c0-1.705-.913-2.737-2.423-2.737-1.53 0-2.502 1.102-2.502 2.836 0 1.735.952 2.802 2.507 2.802 1.241 0 2.108-.598 2.353-1.57h-1.032z"/>
        <g fill="#FFF">
            <path d="M34.847 22.21c-.033-3.652 2.99-5.428 3.128-5.51-1.712-2.496-4.365-2.837-5.298-2.864-2.228-.235-4.39 1.333-5.525 1.333-1.157 0-2.905-1.31-4.79-1.272-2.424.037-4.692 1.44-5.936 3.62-2.567 4.445-.652 10.976 1.807 14.568 1.23 1.76 2.668 3.724 4.55 3.655 1.84-.075 2.529-1.174 4.75-1.174 2.201 0 2.847 1.174 4.766 1.128 1.976-.03 3.22-1.766 4.407-3.542 1.422-2.015 1.993-4.003 2.015-4.105-.045-.014-3.836-1.461-3.874-5.837M31.222 11.472c.99-1.238 1.667-2.922 1.48-4.632-1.434.064-3.226.991-4.258 2.202-.913 1.068-1.729 2.817-1.518 4.462 1.61.12 3.263-.813 4.296-2.032"/>
        </g>
    </g>
</svg>
