<svg xmlns="http://www.w3.org/2000/svg" width="128" height="26" viewBox="0 0 128 26">
    <g fill="none" fill-rule="nonzero">
        <g fill="#141316">
            <path d="M58.621 12.273v8.382a.49.49 0 0 1-.492.49h-2.115a.49.49 0 0 1-.493-.49v-8.182c0-1.982-1.057-3.128-2.79-3.128-1.914 0-3.136 1.255-3.136 3.782v7.528a.49.49 0 0 1-.492.49h-2.115a.49.49 0 0 1-.492-.49v-8.182c0-1.982-.985-3.128-2.699-3.128-1.86 0-3.19 1.291-3.19 3.782v7.528a.49.49 0 0 1-.493.49h-2.115a.49.49 0 0 1-.492-.49V7.327a.49.49 0 0 1 .492-.49h2.115a.49.49 0 0 1 .492.49v.728c0 .145.183.218.292.109.912-1.128 2.188-1.691 3.81-1.691 1.751 0 3.046.672 3.94 2.036.072.091.2.11.273 0 .948-1.382 2.37-2.054 4.248-2.054 3.264.018 5.452 2.272 5.452 5.818zM63.07 19.345c-1.459-1.454-2.206-3.236-2.206-5.345 0-2.11.747-3.89 2.206-5.345 1.459-1.455 3.264-2.182 5.36-2.182 2.116 0 3.903.709 5.361 2.182 1.46 1.454 2.207 3.236 2.207 5.345 0 2.11-.748 3.89-2.207 5.345-1.458 1.455-3.245 2.182-5.36 2.182-2.097 0-3.902-.727-5.36-2.182zm5.36-.818c1.259 0 2.316-.436 3.192-1.29.857-.855 1.294-1.946 1.294-3.237 0-1.29-.437-2.382-1.294-3.236-.857-.855-1.915-1.291-3.191-1.291-1.258 0-2.316.436-3.191 1.29-.857.855-1.295 1.946-1.295 3.237 0 1.29.438 2.382 1.295 3.236.857.855 1.933 1.291 3.19 1.291zM83.729 12.655c2.206.49 5.087 1.4 5.014 4.472 0 1.382-.547 2.455-1.605 3.237-1.057.763-2.388 1.181-3.993 1.181-2.498 0-4.412-.981-5.47-2.636a.804.804 0 0 1 .292-1.109l1.24-.71c.365-.217.857-.108 1.076.255.565.91 1.531 1.364 2.862 1.364 1.641 0 2.444-.545 2.444-1.6 0-.909-1.204-1.454-2.735-1.836-2.152-.546-5.051-1.4-4.996-4.4 0-1.31.492-2.382 1.495-3.182 1.003-.8 2.26-1.2 3.756-1.2 2.024 0 3.701.8 4.777 2.164.31.4.219.981-.237 1.218l-1.149.636c-.346.2-.82.127-1.057-.182-.529-.69-1.313-1.036-2.352-1.036-1.186 0-2.097.509-2.097 1.509.036.945 1.24 1.418 2.735 1.855zM94.14 15.31c-.474 0-.784.49-.602.926.712 1.6 2.28 2.455 4.304 2.455 1.44 0 2.57-.473 3.391-1.382a.636.636 0 0 1 .802-.109l1.44.836c.347.2.438.673.183.982-1.386 1.673-3.337 2.51-5.835 2.51-2.315 0-4.212-.71-5.652-2.11-1.44-1.436-2.152-3.236-2.152-5.4 0-2.145.711-3.927 2.115-5.345 1.404-1.455 3.246-2.182 5.452-2.182 2.097 0 3.811.745 5.16 2.2 1.35 1.454 2.043 3.254 2.043 5.345 0 .2-.019.437-.037.71a.65.65 0 0 1-.638.581H94.14v-.018zm6.674-2.51a.65.65 0 0 0 .601-.89c-.638-1.728-2.096-2.637-3.865-2.637-1.97 0-3.41.982-4.066 2.618a.65.65 0 0 0 .601.89h6.729v.019zM107.232 19.6V1.8c0-.855.693-1.545 1.55-1.545.857 0 1.55.69 1.55 1.545v17.8c0 .855-.693 1.545-1.55 1.545-.857 0-1.55-.69-1.55-1.545zM115.036 19.345c-1.459-1.454-2.206-3.236-2.206-5.345 0-2.11.747-3.89 2.206-5.345 1.459-1.455 3.264-2.182 5.36-2.182 2.116 0 3.903.709 5.361 2.182 1.459 1.454 2.207 3.236 2.207 5.345 0 2.11-.748 3.89-2.207 5.345-1.458 1.455-3.245 2.182-5.36 2.182-2.097 0-3.902-.727-5.361-2.182zm5.36-.818c1.259 0 2.316-.436 3.191-1.29.857-.855 1.295-1.946 1.295-3.237 0-1.29-.438-2.382-1.295-3.236-.857-.855-1.914-1.291-3.19-1.291-1.259 0-2.316.436-3.191 1.29-.857.855-1.295 1.946-1.295 3.237 0 1.29.438 2.382 1.295 3.236.857.855 1.932 1.291 3.19 1.291z"/>
        </g>
        <path fill="#793DA0" d="M3.357.55A3.345 3.345 0 0 0 .014 3.89v18.514c0 1.842 1.5 3.34 3.343 3.34a3.345 3.345 0 0 0 3.344-3.34V3.89c0-1.842-1.5-3.34-3.344-3.34z"/>
        <path fill="#2C2D2D" d="M.041 4.233c1.115 3.657 3.537 6.818 6.674 8.825v2.281c-.385-.233-.853-.494-1.211-.756C3.096 12.77 1.032 8.907.028 6.048V4.165c0 .013 0 .041.013.068z" opacity=".5"/>
        <path fill="#ED2929" d="M25.717.55a3.345 3.345 0 0 0-3.343 3.34v18.514c0 1.842 1.5 3.34 3.343 3.34a3.345 3.345 0 0 0 3.344-3.34V3.89c0-1.842-1.5-3.34-3.344-3.34z"/>
        <path fill="#2C2D2D" d="M28.855 3.656c-1.115 3.656-3.344 7.203-6.467 9.223v2.474c.385-.233.853-.495 1.21-.756 2.408-1.814 4.472-5.676 5.477-8.535l.014-2.653c-.014.014-.234.22-.234.247z" opacity=".5"/>
        <g fill="#09B291">
            <path d="M28.428 1.375A3.208 3.208 0 0 0 25.841.069h-.013c-1.404 0-2.849.934-3.248 2.268-1.06 3.518-4.06 5.979-7.72 6.116-3.893.151-7.196-2.35-8.338-6.075C6.11 1.003 4.665.082 3.234.082A3.189 3.189 0 0 0 .647 1.388c-.62.839-.798 2.31-.482 3.3.922 2.995 2.766 5.305 5.201 7.353 2.422 2.034 5.903 3.312 9.165 3.312h.577c6.399-.247 11.958-5.003 13.815-11.12.29-.99.11-2.034-.495-2.858z"/>
        </g>
    </g>
</svg>
