<svg xmlns="http://www.w3.org/2000/svg" xmlns:xlink="http://www.w3.org/1999/xlink" width="149" height="44" viewBox="0 0 149 44">
    <defs>
        <linearGradient id="b" x1="50%" x2="50%" y1="0%" y2="38.913%">
            <stop offset="0%" stop-color="#FBDA09"/>
            <stop offset="100%" stop-color="#FFBC00"/>
        </linearGradient>
        <path id="a" d="M4.002 5.428c3.461-6.086 9.07-6.092 12.535 0l2.793 4.91c3.462 6.086.591 11.02-6.4 11.02H7.61c-6.997 0-9.866-4.927-6.401-11.02l2.793-4.91z"/>
        <linearGradient id="c" x1="0%" x2="69.306%" y1="58.476%" y2="39.083%">
            <stop offset="0%" stop-color="#01E2FF"/>
            <stop offset="100%" stop-color="#01C4FF"/>
        </linearGradient>
        <linearGradient id="e" x1="20.281%" x2="83.82%" y1="20.102%" y2="83.621%">
            <stop offset="0%" stop-color="#28D781"/>
            <stop offset="100%" stop-color="#02F076"/>
        </linearGradient>
        <linearGradient id="f" x1="74.488%" x2="10.108%" y1="17.43%" y2="91.184%">
            <stop offset="0%" stop-color="#F2414E"/>
            <stop offset="100%" stop-color="#E02554"/>
        </linearGradient>
    </defs>
    <g fill="none" fill-rule="evenodd">
        <rect width="149" height="44" fill="#000" rx="6"/>
        <g fill="#FFF">
            <path d="M79.123 14c-1.984 0-3.592-1.567-3.592-3.5S77.14 7 79.123 7s3.592 1.567 3.592 3.5-1.608 3.5-3.592 3.5zm0-1.07c1.377 0 2.494-1.088 2.494-2.43S80.5 8.07 79.123 8.07c-1.378 0-2.494 1.088-2.494 2.43s1.116 2.43 2.494 2.43zM54.78 10.889v2.139h2.893v.778H53.682V7.292h3.99v.777H54.78v2.042h2.594v.778H54.78zM61.564 8.07v5.736h-1.098V8.069H58.77v-.777h4.49v.777h-1.696zM71.341 8.07v5.736h-1.097V8.069h-1.696v-.777h4.49v.777H71.34zM66.452 7.292h1.097v6.514h-1.097zM84.71 7.292h.2l2.993 4.766V7.292H89v6.514h-1.097L84.71 8.722v5.084h-1.097V7.292h1.097zM49.57 10.225h3.005l-.03.927H49.57z"/>
            <path d="M51.984 8.044l-.688.67c-.429-.427-1.038-.661-1.74-.661-1.406 0-2.544 1.108-2.544 2.476 0 1.367 1.138 2.476 2.543 2.476 1.405 0 2.402-.79 2.4-2.476.003-.104 0-.206-.007-.304h.878v.034c.33 2.36-1.321 3.719-3.3 3.702C47.577 13.958 46 12.424 46 10.529s1.578-3.432 3.525-3.432c1.018 0 1.874.346 2.459.947z"/>
        </g>
        <g fill="#FFF">
            <path d="M108.034 19.5h5.681s3.271.555 3.271 4.303c0 3.748-3.27 4.303-3.27 4.303h-5.682V19.5zm1.102 2.082V26.2h3.857s1.755 0 1.755-2.31c0-2.308-1.755-2.308-1.755-2.308h-3.857z"/>
            <path d="M107.533 19.5h2.004v14h-2.004zM118.156 19.5h2.004v14h-2.004zM127.589 32.499c-.553.455-1.435.882-2.83.97-3.193.198-3.194-2.71-3.194-2.906 0-.196-.158-2.567 2.383-2.944 1.798-.267 3.058.178 3.64.46v-.411c-.142-.545-.585-1.546-1.914-1.546-1.825 0-2.228.984-2.228.984l-1.67-.984s.935-1.922 3.738-1.922c3.486 0 4.079 2.399 4.079 3.207a.33.33 0 0 1 0 .012v6.077h-2.004v-.997zm-.144-2.999s-3.86-1.038-3.995 1.126c-.134 2.165 3.704 1.126 4.047-.409 0-.488-.052-.717-.052-.717zM133.354 32.969L129.78 24.5h2.005l2.57 6.094 2.551-6.046h2.005L133.488 37.4h-2.004l1.87-4.431zM103.046 27.773l-6.339 2.614s.41 1.446 2.315 1.455c1.493.008 2.335-1.32 2.335-1.32l1.608 1.087s-1.297 2.095-3.955 2.095c-3.267 0-4.705-2.85-4.705-4.701 0-1.783 1.142-4.803 4.502-4.803s4.239 3.573 4.239 3.573zm-2.412-.741s-.797-1.21-2.02-.988c-2.588.473-2.262 2.732-2.262 2.732l4.282-1.744zM91.299 19.5h2.12v13.971h-2.12zM87.905 24.504l1.96.017v8.815c0 2.252-1.343 4.63-4.507 4.63-3.163 0-4.185-2.798-4.185-2.798l1.8-.755s.549 1.724 2.479 1.724c2.197 0 2.454-1.995 2.454-2.678v-.957s-.76 1.188-2.65 1.188c-2.047 0-4.48-1.75-4.48-4.735 0-2.984 2.291-4.691 4.504-4.754 1.773-.05 2.625 1.174 2.625 1.174v-.871zm-2.48 7.394c1.428 0 2.587-1.306 2.587-2.918s-1.159-2.918-2.588-2.918c-1.43 0-2.588 1.306-2.588 2.918s1.159 2.918 2.588 2.918zM75.125 33.7c-2.635 0-4.771-2.127-4.771-4.75s2.136-4.75 4.77-4.75c2.636 0 4.772 2.127 4.772 4.75s-2.136 4.75-4.771 4.75zm-.031-1.863c1.48 0 2.681-1.292 2.681-2.887s-1.2-2.887-2.681-2.887-2.682 1.292-2.682 2.887 1.2 2.887 2.682 2.887zM64.803 33.7c-2.635 0-4.771-2.127-4.771-4.75s2.136-4.75 4.77-4.75c2.636 0 4.772 2.127 4.772 4.75s-2.136 4.75-4.771 4.75zm-.031-1.863c1.48 0 2.681-1.292 2.681-2.887s-1.2-2.887-2.681-2.887-2.682 1.292-2.682 2.887 1.2 2.887 2.682 2.887z"/>
            <g>
                <path d="M52.484 25.706h6.299l-.063 1.987h-6.236z"/>
                <path d="M57.543 21.03l-1.441 1.436c-.9-.915-2.176-1.417-3.65-1.417-2.944 0-5.332 2.377-5.332 5.309 0 2.932 2.388 5.309 5.333 5.309 2.944 0 5.035-1.695 5.03-5.31.006-.222 0-.44-.014-.651h1.84v.074c.692 5.06-2.77 7.973-6.919 7.936C48.31 33.71 45 30.42 45 26.358 45 22.294 48.309 19 52.39 19c2.134 0 3.927.742 5.153 2.03z"/>
            </g>
        </g>
        <g transform="translate(11 11)">
            <mask id="d" fill="#fff">
                <use xlink:href="#a"/>
            </mask>
            <use fill="url(#b)" transform="rotate(90 10.268 11.11)" xlink:href="#a"/>
            <path fill="url(#c)" d="M0-3.01l13.979 13.894-14.16 14.442z" mask="url(#d)"/>
            <path fill="url(#e)" d="M-2.875-5.87l16.852 16.758 5.01-4.78z" mask="url(#d)"/>
            <path fill="url(#f)" d="M13.98 10.885l7.67 7.73-22.914 7.732z" mask="url(#d)"/>
        </g>
    </g>
</svg>
